# xmcd
#
# Track frame offsets:
#	150
#	15905
#	34922
#	48108
#	63476
#	78944
#	101112
#	119963
#	131009
#	148682
#	164434
#	178654
#	203127
#	219604
#	232186
#	256387
#	265028
#
# Disc length: 3916 seconds
#
# Revision: 0
# Processed by: cddbd v1.5.2PL0 Copyright (c) Steve Scherf et al.
# Submitted via: EasyCDDAExtractor 16.0.6.1
#
DISCID=fb0f4a11
DTITLE=Γιάννης Πάριος - Ο κύκλος του έρωτα Cd2
DYEAR=1900
DGENRE=
TTITLE0=Ποιος να συγκριθεί μαζί σου (Γιάννης Πάριος Live)
TTITLE1=Κάνε λιγάκι υπομονή (Γιάννης Πάριος Live)
TTITLE2=Το ξέρω πια δεν μ΄αγαπάς (Γιάννης Πάριος Live)
TTITLE3=Τα δάχτυλα (Γιάννης Πάριος Live)
TTITLE4=Ήρθα κι απόψε στα σκαλοπάτια σου (Γιάννης Πάριος Live)
TTITLE5=Το σημάδι του έρωτα (Γιάννης Πάριος Live)
TTITLE6=Τόσα γράμματα (Γιάννης Πάριος Live)
TTITLE7=Το σημάδι (Γιάννης Πάριος Live)
TTITLE8=όλα σ΄αγαπάνε (Γιάννης Πάριος Live)
TTITLE9=Αχ τα μάτια σου (Γιάννης Πάριος Live)
TTITLE10=Ένα σφάλμα έκανα (Γιάννης Πάριος Live)
TTITLE11=Όλη η ζωή μου (Γιάννης Πάριος Live)
TTITLE12=Τώρα πια (Γιάννης Πάριος Live)
TTITLE13=Την αγαπούσα παραδέχομαι (Γιάννης Πάριος Live)
TTITLE14=Μου΄χεις κάνει τη ζωή μου Κόλαση (Γιάννης Πάριος Live)
TTITLE15=Το τραγούδι του Χάρη (Πιο καλή μοναξιά) (Γιάννης Πάριος Live)
TTITLE16=Δεν μετανειώνω (Γιάννης Πάριος Live)
EXTD=
EXTT0=
EXTT1=
EXTT2=
EXTT3=
EXTT4=
EXTT5=
EXTT6=
EXTT7=
EXTT8=
EXTT9=
EXTT10=
EXTT11=
EXTT12=
EXTT13=
EXTT14=
EXTT15=
EXTT16=
PLAYORDER=
